<svg xmlns="http://www.w3.org/2000/svg" viewBox="0 0 280 230">
    <g fill="none" stroke-width="2">
        <path stroke="navy" d="M224.06 67.16c-38.32-58.55-121.61-58.99-160.1.04a.36.36 0 0 0 .3.55h159.49a.38.38 0 0 0 .31-.59" vector-effect="non-scaling-stroke"/>
        <path stroke="olive" d="M227.98 156.81c13.2-25.7 13.1-56.93-.01-82.62q-.22-.44-.72-.44H60.74q-.49 0-.72.44c-13.36 26.13-13.04 56.62-.04 82.6q.24.46.76.46h166.51q.5 0 .73-.44" vector-effect="non-scaling-stroke"/>
        <path stroke="navy" d="M63.92 163.91c37.9 58.49 121.56 58.61 159.91.46q.74-1.12-.6-1.12H64.27a.43.42 73.3 0 0-.35.66" vector-effect="non-scaling-stroke"/>
        <path stroke="olive" d="M213 126.93a.32.32 0 0 1-.32.32h-6.11a.32.32 0 0 0-.32.32v3.86a.32.32 0 0 0 .32.32h18.11a.32.32 0 0 0 .32-.32v-3.86a.32.32 0 0 0-.32-.32h-6.11a.32.32 0 0 1-.32-.32V99.07a.32.32 0 0 0-.32-.32h-12.27a.32.32 0 0 0-.28.46l2.02 4.11a.32.32 0 0 0 .29.18h4.99a.32.32 0 0 1 .32.32v23.11M70.45 119.81c5.43-.61 10.77 1.08 14.21-4.69q3.64-6.11-.57-11.91c-3.52-4.84-13.88-3.5-19.1-3.44q-.49 0-.49.49v30.99q0 .5.5.5h4.26q.75 0 .75-.76l-.03-10.65q0-.48.47-.53M107.34 117.91c-18.54-5.93-18.74 17.96-2.93 13.87 1.22-.32 1.71-.81 2.81-1.49q.78-.49.78.44v.76q0 .73.69.49 1.63-.56 3.26.03a.77.77 0 0 0 1.04-.71q.1-7.65-.22-15.23c-.42-10-11.54-9.01-17.8-5.53q-.51.28-.34.83l.98 3.13q.18.61.71.26c3.55-2.37 11.87-4.42 11.55 2.77q-.02.54-.53.38M127.24 114.88c.03-4.01 7.27-1.72 8.86-.64q.47.31.9-.04l2.58-2.09q.58-.46.02-.95c-4.2-3.64-16.08-5.08-17.05 2.72-1.01 8.01 9.81 5.93 12.87 11.37q.25.45-.03.88c-2.17 3.3-7.08 1.15-9.46-.77q-.51-.41-.96.05l-2.55 2.55q-.48.47.03.91 6.18 5.26 13.65 2.47c3.55-1.32 5.58-5.76 3.34-9.22-1.81-2.82-8.32-5.02-11.49-6.21a1.1 1.08-80.1 0 1-.71-1.03M163.61 114.58c.97 2.28 3.65.42 5.24-.08q.56-.18.37-.72-1.31-3.88-5.64-5.08c-19.15-5.34-19.44 28.38-.03 23.02q4.57-1.26 5.78-5.79.14-.52-.38-.67l-3.86-1.1q-.53-.16-.74.36-.97 2.36-3.33 2.74c-9.07 1.43-8.59-18.03 1.93-13.35q.46.21.66.67M192.25 130.74v.51q0 .5.5.5h3.98q.49 0 .5-.49c.07-6.31 2.32-20.76-5.48-22.73q-6.13-1.56-12.45 2.02-.56.31-.35.92l1 2.9q.26.75.92.31c3.42-2.29 12.37-4.23 11.18 2.94q-.08.48-.54.31c-4.15-1.46-12.34-1.33-13.79 4.07-2.47 9.12 7.46 12.74 13.85 8.38q.68-.47.68.36" vector-effect="non-scaling-stroke"/>
        <path stroke="olive" d="m69.99 105.2-.04 9.06a.22.22 0 0 0 .22.22l6.12.03a4.58 4.42-89.7 0 0 4.44-4.55v-.34a4.58 4.42-89.7 0 0-4.4-4.6l-6.12-.04a.22.22 0 0 0-.22.22M107.934 123.863a5.04 3.21-6.8 0 0-5.384-2.59 5.04 3.21-6.8 0 0-4.624 3.784 5.04 3.21-6.8 0 0 5.384 2.59 5.04 3.21-6.8 0 0 4.624-3.784M192.405 123.862a5.13 3.21-6.7 0 0-5.47-2.59 5.13 3.21-6.7 0 0-4.72 3.786 5.13 3.21-6.7 0 0 5.47 2.59 5.13 3.21-6.7 0 0 4.72-3.786" vector-effect="non-scaling-stroke"/>
    </g>
    <path d="M243.91 115.53a99.92 98.39 0 0 1-99.92 98.39 99.92 98.39 0 0 1-99.92-98.39 99.92 98.39 0 0 1 99.92-98.39 99.92 98.39 0 0 1 99.92 98.39Zm-19.85-48.37c-38.32-58.55-121.61-58.99-160.1.04a.36.36 0 0 0 .3.55h159.49a.38.38 0 0 0 .31-.59Zm3.92 89.65c13.2-25.7 13.1-56.93-.01-82.62q-.22-.44-.72-.44H60.74q-.49 0-.72.44c-13.36 26.13-13.04 56.62-.04 82.6q.24.46.76.46h166.51q.5 0 .73-.44Zm-164.06 7.1c37.9 58.49 121.56 58.61 159.91.46q.74-1.12-.6-1.12H64.27a.43.42 73.3 0 0-.35.66Z"/>
    <path fill="#00f" d="M63.96 67.2c38.49-59.03 121.78-58.59 160.1-.04a.38.38 0 0 1-.31.59H64.26a.36.36 0 0 1-.3-.55Z"/>
    <path fill="#ff0" d="M227.97 74.19c13.11 25.69 13.21 56.92.01 82.62q-.23.44-.73.44H60.74q-.52 0-.76-.46c-13-25.98-13.32-56.47.04-82.6q.23-.44.72-.44h166.51q.5 0 .72.44ZM213 126.93a.32.32 0 0 1-.32.32h-6.11a.32.32 0 0 0-.32.32v3.86a.32.32 0 0 0 .32.32h18.11a.32.32 0 0 0 .32-.32v-3.86a.32.32 0 0 0-.32-.32h-6.11a.32.32 0 0 1-.32-.32V99.07a.32.32 0 0 0-.32-.32h-12.27a.32.32 0 0 0-.28.46l2.02 4.11a.32.32 0 0 0 .29.18h4.99a.32.32 0 0 1 .32.32v23.11Zm-142.55-7.12c5.43-.61 10.77 1.08 14.21-4.69q3.64-6.11-.57-11.91c-3.52-4.84-13.88-3.5-19.1-3.44q-.49 0-.49.49v30.99q0 .5.5.5h4.26q.75 0 .75-.76l-.03-10.65q0-.48.47-.53Zm36.89-1.9c-18.54-5.93-18.74 17.96-2.93 13.87 1.22-.32 1.71-.81 2.81-1.49q.78-.49.78.44v.76q0 .73.69.49 1.63-.56 3.26.03a.77.77 0 0 0 1.04-.71q.1-7.65-.22-15.23c-.42-10-11.54-9.01-17.8-5.53q-.51.28-.34.83l.98 3.13q.18.61.71.26c3.55-2.37 11.87-4.42 11.55 2.77q-.02.54-.53.38Zm19.9-3.03c.03-4.01 7.27-1.72 8.86-.64q.47.31.9-.04l2.58-2.09q.58-.46.02-.95c-4.2-3.64-16.08-5.08-17.05 2.72-1.01 8.01 9.81 5.93 12.87 11.37q.25.45-.03.88c-2.17 3.3-7.08 1.15-9.46-.77q-.51-.41-.96.05l-2.55 2.55q-.48.47.03.91 6.18 5.26 13.65 2.47c3.55-1.32 5.58-5.76 3.34-9.22-1.81-2.82-8.32-5.02-11.49-6.21a1.1 1.08-80.1 0 1-.71-1.03Zm36.37-.3c.97 2.28 3.65.42 5.24-.08q.56-.18.37-.72-1.31-3.88-5.64-5.08c-19.15-5.34-19.44 28.38-.03 23.02q4.57-1.26 5.78-5.79.14-.52-.38-.67l-3.86-1.1q-.53-.16-.74.36-.97 2.36-3.33 2.74c-9.07 1.43-8.59-18.03 1.93-13.35q.46.21.66.67Zm28.64 16.16v.51q0 .5.5.5h3.98q.49 0 .5-.49c.07-6.31 2.32-20.76-5.48-22.73q-6.13-1.56-12.45 2.02-.56.31-.35.92l1 2.9q.26.75.92.31c3.42-2.29 12.37-4.23 11.18 2.94q-.08.48-.54.31c-4.15-1.46-12.34-1.33-13.79 4.07-2.47 9.12 7.46 12.74 13.85 8.38q.68-.47.68.36Z"/>
    <path d="M213 126.93v-23.11a.32.32 0 0 0-.32-.32h-4.99a.32.32 0 0 1-.29-.18l-2.02-4.11a.32.32 0 0 1 .28-.46h12.27a.32.32 0 0 1 .32.32v27.86a.32.32 0 0 0 .32.32h6.11a.32.32 0 0 1 .32.32v3.86a.32.32 0 0 1-.32.32h-18.11a.32.32 0 0 1-.32-.32v-3.86a.32.32 0 0 1 .32-.32h6.11a.32.32 0 0 0 .32-.32ZM69.98 120.34l.03 10.65q0 .76-.75.76H65q-.5 0-.5-.5v-30.99q0-.49.49-.49c5.22-.06 15.58-1.4 19.1 3.44q4.21 5.8.57 11.91c-3.44 5.77-8.78 4.08-14.21 4.69q-.47.05-.47.53Zm.01-15.14-.04 9.06a.22.22 0 0 0 .22.22l6.12.03a4.58 4.42-89.7 0 0 4.44-4.55v-.34a4.58 4.42-89.7 0 0-4.4-4.6l-6.12-.04a.22.22 0 0 0-.22.22Z"/>
    <path fill="#ff0" d="M69.99 105.2a.22.22 0 0 1 .22-.22l6.12.04a4.58 4.42-89.7 0 1 4.4 4.6v.34a4.58 4.42-89.7 0 1-4.44 4.55l-6.12-.03a.22.22 0 0 1-.22-.22l.04-9.06Z"/>
    <path d="M107.87 117.53c.32-7.19-8-5.14-11.55-2.77q-.53.35-.71-.26l-.98-3.13q-.17-.55.34-.83c6.26-3.48 17.38-4.47 17.8 5.53q.32 7.58.22 15.23a.77.77 0 0 1-1.04.71q-1.63-.59-3.26-.03-.69.24-.69-.49v-.76q0-.93-.78-.44c-1.1.68-1.59 1.17-2.81 1.49-15.81 4.09-15.61-19.8 2.93-13.87q.51.16.53-.38Zm.064 6.333a5.04 3.21-6.8 0 0-5.384-2.59 5.04 3.21-6.8 0 0-4.624 3.784 5.04 3.21-6.8 0 0 5.384 2.59 5.04 3.21-6.8 0 0 4.624-3.784ZM127.24 114.88a1.1 1.08-80.1 0 0 .71 1.03c3.17 1.19 9.68 3.39 11.49 6.21 2.24 3.46.21 7.9-3.34 9.22q-7.47 2.79-13.65-2.47-.51-.44-.03-.91l2.55-2.55q.45-.46.96-.05c2.38 1.92 7.29 4.07 9.46.77q.28-.43.03-.88c-3.06-5.44-13.88-3.36-12.87-11.37.97-7.8 12.85-6.36 17.05-2.72q.56.49-.02.95L137 114.2q-.43.35-.9.04c-1.59-1.08-8.83-3.37-8.86.64ZM162.95 113.91c-10.52-4.68-11 14.78-1.93 13.35q2.36-.38 3.33-2.74.21-.52.74-.36l3.86 1.1q.52.15.38.67-1.21 4.53-5.78 5.79c-19.41 5.36-19.12-28.36.03-23.02q4.33 1.2 5.64 5.08.19.54-.37.72c-1.59.5-4.27 2.36-5.24.08q-.2-.46-.66-.67ZM191.57 130.38c-6.39 4.36-16.32.74-13.85-8.38 1.45-5.4 9.64-5.53 13.79-4.07q.46.17.54-.31c1.19-7.17-7.76-5.23-11.18-2.94q-.66.44-.92-.31l-1-2.9q-.21-.61.35-.92 6.32-3.58 12.45-2.02c7.8 1.97 5.55 16.42 5.48 22.73q-.01.49-.5.49h-3.98q-.5 0-.5-.5v-.51q0-.83-.68-.36Zm.835-6.518a5.13 3.21-6.7 0 0-5.47-2.59 5.13 3.21-6.7 0 0-4.72 3.786 5.13 3.21-6.7 0 0 5.47 2.59 5.13 3.21-6.7 0 0 4.72-3.786Z"/>
    <ellipse fill="#ff0" rx="5.04" ry="3.21" transform="rotate(-6.8 1098.915 -804.024)"/>
    <ellipse fill="#ff0" rx="5.13" ry="3.21" transform="rotate(-6.7 1156.775 -1537.746)"/>
<path fill="#00f" d="M223.83 164.37c-38.35 58.15-122.01 58.03-159.91-.46a.43.42 73.3 0 1 .35-.66h158.96q1.34 0 .6 1.12Z"/>
</svg>