<?xml version="1.0" encoding="iso-8859-1"?>
<!-- Uploaded to: SVG Repo, www.svgrepo.com, Generator: SVG Repo Mixer Tools -->
<svg height="800px" width="800px" version="1.1" id="Capa_1" xmlns="http://www.w3.org/2000/svg" xmlns:xlink="http://www.w3.org/1999/xlink" 
	 viewBox="0 0 272 272" xml:space="preserve">
<g transform="scale(1) translate(0, 0)">
	<path style="fill:#030104;" d="M264.436,178.768c-10.482-3.947-17.772-7.112-21.863-9.525c-7.42-4.112-12.317-12.228-14.678-24.363
		c-1.957-10.082-0.646-19.536,3.944-28.311c4.585-8.797,11.706-14.774,21.345-17.922l-0.42-2.164
		c7.242-2.297,13.418-4.343,18.525-6.143v-1.22l-32.966,8.884c-1.401,0.488-4.664,0.163-9.792-0.973
		c-7.604-1.726-14.428-5.793-20.472-12.204c-6.053-6.392-9.835-13.505-11.356-21.326c-1.925-9.886-0.314-18.62,4.826-26.247
		l-1.417-0.683c4.065-6.911,7.544-12.862,10.438-17.862h-2.021c-3.805,5.776-6.93,10.617-9.38,14.523
		c-3.319,4.916-5.784,8.708-7.398,11.371c-3.983,4.826-10.589,8.146-19.85,9.948c-17.487,3.402-32.085-1.343-43.763-14.245
		c-3.067-3.658-4.889-6.408-5.452-8.228c-2.099-10.206-3.889-18.453-5.361-24.74h-1.463c0.902,6.534,1.734,11.751,2.495,15.653
		l-1.546,0.297c1.79,11.404-0.456,21.78-6.756,31.114c-6.302,9.333-15.111,15.111-26.422,17.31
		c-10.906,2.121-21.088-0.281-30.545-7.198l-0.062-0.312l-0.797,0.803c-7.545-5.42-13.806-9.875-18.779-13.362h-2.292
		c4.957,3.891,9.947,7.775,14.968,11.662c11.092,8.733,17.462,17.328,19.102,25.759c2.198,11.315-0.052,21.996-6.736,32.057
		c-6.691,10.056-15.598,16.17-26.713,18.328c-1.64,0.322-3.413,0.551-5.303,0.706l-0.732-0.496c-0.271,0.902-0.49,1.38-0.694,1.421
		L0,144.49v2.09c8.981-0.876,16.463-1.691,22.444-2.438l11.292-1.225c8.507,0.897,15.724,4.519,21.65,10.834
		c5.92,6.323,9.723,13.81,11.402,22.453c2.362,12.134,0.831,21.824-4.588,29.079c-4.424,4.707-7.899,8.257-10.423,10.665
		c-4.755,4.467-9.459,8.915-14.095,13.353h4.258c5.072-4.876,9.358-9.094,12.858-12.656l0.374,0.251
		c6.229-5.271,12.75-8.56,19.538-9.882c11.307-2.197,21.841,0.063,31.59,6.825c9.752,6.755,15.726,15.79,17.924,27.103
		c0.681,3.498,0.48,10.161-0.591,19.973l-0.437,3.748h1.434c1.078-6.894,1.895-12.637,2.451-17.231
		c4.397-14.733,14.934-23.724,31.591-26.964c10.292-2,19.122-1.039,26.503,2.854c5.49,2.977,11.039,8.43,16.629,16.312
		c1.772,2.646,3.529,5.279,5.269,7.898h2.151l-1.162-2.068c-5.215-9.235-8.037-14.99-8.478-17.248
		c-2.321-11.939-0.446-22.926,5.604-32.962c6.055-10.032,14.945-16.198,26.67-18.478c6.374-1.24,13.658-0.625,21.822,1.84
		l0.627-1.729c7,2.561,12.898,4.702,17.693,6.424v-1.613C269.68,180.768,267.156,179.792,264.436,178.768z M237.936,100.965
		c-0.82,0.159,0.578,0.21,4.19,0.147c-15.015,10.604-20.704,25.279-17.069,43.984c1.564,8.04,5.081,15.149,10.555,21.334
		l-10.396-4.058l-0.118-0.618c-10.831-4.085-17.343-11.788-19.546-23.104C201.632,118.48,212.428,105.924,237.936,100.965z
		 M89.072,160.652c-2.116-10.896-7.916-18.21-17.4-21.921c15.406-3.201,24.412,1.989,27.05,15.563
		c1.521,7.823-0.685,14.549-6.639,20.188l0.428,0.554l-5.385,5.22C89.667,173.565,90.312,167.029,89.072,160.652z M88.28,100.595
		c-0.479-2.474-1.283-4.983-2.423-7.533c6.722,4.877,10.597,10.001,11.637,15.356l0,0c1.24,6.368-0.17,12.251-4.261,17.636
		c-4.074,5.385-9.296,8.169-15.67,8.338l-0.189,0.673l-6.599,0.648c6.588-3.425,11.514-8.333,14.749-14.728
		C88.759,114.595,89.681,107.792,88.28,100.595z M179.965,79.568c1.398,7.202,4.77,13.272,10.111,18.212
		c5.338,4.937,11.643,7.979,18.908,9.138l0,0l-17.852,5.393c-4.236,1.246-8.508-0.123-12.792-4.082
		c-4.302-3.971-6.868-8.114-7.713-12.452c-0.999-5.133-0.144-10.088,2.555-14.888l-0.062-0.315l6.338-10.2
		C179.113,73.005,179.283,76.071,179.965,79.568z M182.629,136.05c0.885,4.545,2.679,8.352,5.419,11.449l-12.427-4.642l0.621-1.717
		l-0.309,0.06c-4.143-1.54-6.611-4.372-7.41-8.483c-1.6-8.229,4.588-13.71,18.578-16.43l1.242-0.243
		C183.01,121.575,181.111,128.246,182.629,136.05z M116.855,143.719c-0.881-4.525-2.918-7.86-6.111-10.015l10.552-1.736l0.548,1.178
		l0.365,0.251c2.717-0.328,4.39,1.172,5.035,4.469c0.318,1.643-0.931,4.013-3.735,7.127c-2.402,1.962-4.69,3.902-6.88,5.82
		C117.216,148.354,117.296,145.988,116.855,143.719z M100.525,153.631c-1.562-8.03-5.762-13.725-12.615-17.091l0.926-0.178
		c6.588-1.281,12.521-2.005,17.825-2.188c4.764,2.492,7.562,5.896,8.402,10.214c0.758,3.907-0.952,8.299-5.127,13.166
		c-3.606,3.486-7.176,7.056-10.732,10.744C100.992,163.252,101.443,158.362,100.525,153.631z M100.276,107.875
		c-0.2-1.025-0.765-2.843-1.702-5.435c5.978,4.383,10.455,7.677,13.451,9.871l0.847,2.72c0.677,3.499,0.052,6.829-1.899,9.982
		c-1.945,3.155-4.575,5.046-7.864,5.686l-1.599-0.011l-0.011,1.605L88.91,133.46C98.656,127.516,102.433,118.97,100.276,107.875z
		 M165.992,132.89c0.562,2.881,1.803,5.417,3.723,7.603l-0.312,0.06c-2.951-0.921-5.828-1.951-8.615-3.124
		c-3.733-1.624-5.754-3.26-6.072-4.903c-0.562-2.889,0.438-4.889,2.989-6.029c-0.039-0.209-0.099-0.503-0.181-0.933l-0.181-0.919
		l10.989-2.785C165.97,125.087,165.192,128.77,165.992,132.89z M142.322,131.414l10.887,4.916c-2.232,0.655-3.855,2.147-4.89,4.474
		L142.322,131.414z M147.683,144.138c-2.012-0.466-3.636-0.583-4.876-0.339c-1.844,0.354-3.294,1.178-4.322,2.453
		c0.518-6.08,0.773-11.371,0.758-15.843l1.055-1.174l7.263,14.273L147.683,144.138z M151.812,132.442l0.609,1.487
		c-4.768-1.427-8.293-2.547-10.592-3.397l-1.287-1.668c3.135-0.393,6.816-1.211,11.055-2.465l1.663,0.318
		C151.932,128.683,151.453,130.588,151.812,132.442z M142.588,127.828l4.477-6.623c1.213,1.899,2.229,3.19,2.997,3.882
		L142.588,127.828z M151.499,122.572c-1.065-1.075-1.679-2.018-1.839-2.848c-0.28-1.435,0.58-3.628,2.567-6.579
		c1.325-1.973,2.761-3.95,4.286-5.96c0.107,2.758,1.358,5.336,3.745,7.754c2.392,2.429,4.923,3.905,7.596,4.452l-13.589,4.246
		C153.488,124.012,152.556,123.652,151.499,122.572z M148.821,115.406l-0.739-0.496c-1.239,1.319-2.477,2.083-3.709,2.324
		c-3.502,0.682-5.526-0.415-6.088-3.302l-2.036-12.102c5,3.73,10.067,5.104,15.209,4.104c0.205-0.041,0.803-0.272,1.797-0.677
		c0.619-0.118,1.129-0.22,1.547-0.299h0.001L148.821,115.406z M139.939,127.38c0.296-0.695,0.081-3.425-0.633-8.199
		c1.924,1.122,3.92,1.479,5.97,1.078l0.87-0.484l0,0l0,0l0,0c-1.822,3.771-3.217,6.5-4.18,8.175l-3.149,1.896l-0.431-0.563
		l0.613-0.118l-1.289-0.066c-3.32-2.765-5.86-4.839-7.613-6.203c3.167-0.186,5.645-1.736,7.423-4.653
		C138.736,122.28,139.539,125.329,139.939,127.38z M136.415,129.03L136.415,129.03l-8.206,0.63c0.956-1.667,1.377-3.359,1.263-5.035
		L136.415,129.03z M137.16,129.522l1.106,0.755l-8.687,8.096c-0.352-2.928-1.514-5.05-3.479-6.377l1.113-0.855
		C129.975,131.033,133.278,130.492,137.16,129.522z M139,130.773l-2.359,14.219c-1.461-3.123-3.937-4.354-7.45-3.673L139,130.773z
		 M137.904,150.679c0.344-3.161,1.854-5,4.529-5.522c2.676-0.518,4.893,0.441,6.65,2.86l0.859-0.478l5.066,9.587
		c-2.911-1.784-6.215-2.317-9.924-1.596c-3.077,0.599-5.691,1.957-7.848,4.091C137.341,156.83,137.559,153.85,137.904,150.679z
		 M149.777,143.405c0.145-2.587,1.641-4.155,4.53-4.719c1.073,0,2.058,0.126,2.961,0.378l0.128-0.978l8.056,3.556
		c-2.226,0.65-4.302,2.326-6.224,5.055c-1.924,2.727-2.874,5.256-2.848,7.593L149.777,143.405z M165.443,115.221
		c-3.35-1.798-5.354-4.457-6.036-7.954c-0.48-2.48,0.319-5.512,2.395-9.115c1.825-2.708,3.632-5.521,5.411-8.421
		c-0.019,2.138,0.119,3.926,0.4,5.369c1.96,10.082,7.266,16.526,15.929,19.322l-7.538,2.423l-0.123-0.616
		C172.262,117.361,168.783,117.026,165.443,115.221z M158.959,98.378l-1.051-0.43c-0.954,2.741-3.283,4.482-6.987,5.199
		c-9.257,1.803-14.831-2.138-16.71-11.803l-1.07-7.155c6.495,7.052,15.101,9.558,25.801,7.478c0.609-0.122,2.301-0.773,5.062-1.946
		L158.959,98.378z M133.177,100.833l0.554-0.427l2.581,13.274l-0.922,0.178c0.224,3.371-1.306,5.374-4.596,6.014
		c-1.44,0.281-2.883,0.034-4.312-0.763l-0.503,0.737l-11.355-9.001c1.802,0.503,3.837,0.545,6.099,0.104
		C126.901,109.751,131.048,106.371,133.177,100.833z M115.71,114.8c4.466,3.177,7.802,5.529,10.024,7.019l1.085,2.347
		c0.2,1.033-0.039,2.251-0.727,3.665c-0.686,1.419-1.439,2.198-2.26,2.358l-16.352,1.582c2.723-1.382,4.969-3.791,6.763-7.229
		C116.03,121.096,116.512,117.843,115.71,114.8z M126.282,144.454l0.68,0.191c0.7-0.776,1.562-1.271,2.591-1.468
		c2.879-0.562,5.133,0.602,6.777,3.493l-2.011,16.07c-0.184-3.155-1.963-5.962-5.314-8.406c-3.358-2.442-6.458-3.286-9.296-2.516
		l-0.624,0.118L126.282,144.454z M136.981,161.594c2.484-2.625,5.052-4.198,7.731-4.719c5.354-1.04,10.069,1.258,14.147,6.871
		c0.573,0.737,3.379,5.855,8.436,15.327c-5.668-3.812-11.679-5.088-18.056-3.849c-5.967,1.158-10.874,3.926-14.72,8.299
		C135.639,173.919,136.464,166.615,136.981,161.594z M158.646,157.691c-0.598-3.074,0.085-6.143,2.06-9.205
		c1.972-3.043,4.496-4.873,7.577-5.472c0.659,0.092,1.094,0.103,1.291,0.065c9.029,3.574,15.755,6.34,20.183,8.254
		c-6.214,0.988-11.336,3.494-15.362,7.465c-4.028,3.99-6.185,9.111-6.466,15.356C161.662,162.768,158.568,157.291,158.646,157.691z
		 M168.357,82.458c-2.936,3.564-6.87,5.833-11.812,6.792c-5.552,1.081-10.912,0.147-16.084-2.813
		c-5.164-2.938-8.283-7.191-9.36-12.743l-2.166-11.118c8.821,11.317,20.643,15.522,35.454,12.642
		c3.912-0.763,7.682-2.232,11.312-4.435C170.971,78.324,168.523,82.222,168.357,82.458z M130.301,84.425l1.676,8.629l-0.61,0.119
		c0.943,8.146-2.811,13.038-11.249,14.679c-4.115,0.801-7.243,0.035-9.416-2.331l-1.306,1.532l-7.119-5.329
		c3.207,0.011,5.735-0.155,7.587-0.515C120.151,99.207,126.973,93.605,130.301,84.425z M123.555,90.053
		c-4.142,4.545-8.978,7.357-14.536,8.438c-4.934,0.958-9.201,0.492-12.758-1.369c-0.448-0.126-3.935-2.649-10.446-7.576
		c4.027,0.929,8.296,0.943,12.831,0.062c14.604-2.842,23.697-11.544,27.272-26.116l2.34,12.041
		C129.257,80.669,127.685,85.516,123.555,90.053z M94.67,176.228c3.22-3.194,6.169-5.054,8.843-5.573
		c5.763-1.12,11.177,0.068,16.229,3.582c5.056,3.498,8.165,8.225,9.324,14.197c0.122,0.616,0.178,1.725,0.173,3.326
		c-0.007,1.613,0.037,2.721,0.159,3.344l0.061,0.297l0.876-2.093l-1.618,14.731c-1.395-9.342-5.681-16.301-12.865-20.885
		c-7.191-4.58-15.515-5.952-24.986-4.113c-1.644,0.318-2.843,0.77-3.585,1.348C89.725,181.564,92.183,178.848,94.67,176.228z
		 M130.033,191.77c0.176-1.318,0.121-2.693-0.161-4.143c-1.235-6.361-4.508-11.384-9.809-15.061
		c-5.308-3.656-11.259-4.863-17.841-3.586c8.189-8.412,13-13.298,14.45-14.66l2.411-0.783c3.286-0.635,6.347,0,9.175,1.904
		c2.828,1.911,4.556,4.498,5.196,7.798c0.323,1.647,0.021,6.407-0.906,14.271C131.62,185.365,130.789,190.132,130.033,191.77z
		 M134.262,185.496c3.361-4.697,8.219-7.676,14.601-8.917c9.875-1.922,17.34,1.329,22.396,9.741l0.311-0.062l9.826,17.633
		c-9.041-9.139-19.415-12.574-31.14-10.292c-7.622,1.479-13.636,5.65-18.073,12.487
		C133.166,196.922,133.877,190.061,134.262,185.496z M180.456,195.741l-10.506-17.827c-0.676-5.623,0.677-10.742,4.054-15.352
		c3.369-4.611,7.841-7.457,13.399-8.538c4.517-0.881,12.37,1.019,23.526,5.675c-9.225,2.008-16.582,6.168-22.078,12.473
		C183.351,178.473,180.553,186.328,180.456,195.741z M195.993,150.432c-5.784-3.354-9.286-8.226-10.526-14.604
		c-2.16-11.114,1.763-18.374,11.762-21.83l0.199-0.661l14.512-4.438c-8.148,8.634-11.1,18.717-8.861,30.232
		c1.439,7.408,4.886,13.584,10.336,18.493C202.775,153.5,196.977,151.11,195.993,150.432z M194.328,46.343
		c-1.461,5.621-1.605,11.525-0.404,17.699c1.801,9.259,6.056,17.128,12.762,23.62c6.713,6.489,14.629,10.769,23.793,12.828l0,0
		l-11.609,2.904c-8.226,1.599-15.848-0.012-22.879-4.84c-7.021-4.833-11.328-11.362-12.93-19.585
		c-0.52-2.683-0.535-6.26-0.011-10.74c0.519-4.47,1.648-7.2,3.373-8.182l-0.367-0.246L194.328,46.343z M146.156,55.55
		c8.68,2.903,17.434,3.494,26.288,1.773c5.559-1.081,10.528-2.901,14.943-5.475l-3.913,6.217l-0.307,0.06
		c-3.044,7.425-9.495,12.089-19.374,14.01c-8.032,1.562-15.854,0.307-23.477-3.765c-7.626-4.061-12.217-10.116-13.78-18.138
		l-1.858-9.564C130.313,47.692,137.47,52.649,146.156,55.55z M84.17,74.483c9.671-1.878,18.035-6.641,25.082-14.323
		c7.043-7.67,10.801-16.362,11.263-26.059l3.483,17.917c1.274,7.643-0.81,14.989-6.276,22.032
		c-5.474,7.04-12.107,11.32-19.925,12.841c-8.233,1.598-15.296-0.126-21.181-5.167l-0.563,0.43l-11.546-8.34
		C71.441,75.475,78.003,75.685,84.17,74.483z M63.092,118.454c5.034-9.821,6.561-19.79,4.604-29.867
		c-0.763-3.908-2.151-7.803-4.189-11.673c4.662,3.135,9.248,6.405,13.76,9.811c4.409,4.05,7.159,8.854,8.241,14.409
		c1.557,8.016,0.113,15.408-4.343,22.148c-4.453,6.743-10.583,10.87-18.405,12.391c-2.053,0.4-3.524,0.574-4.379,0.529l-0.137,0.98
		l-16.9,2.007C50.818,135.214,58.067,128.302,63.092,118.454z M68.895,175.461c-3.402-17.478-12.713-28.584-27.937-33.314
		c10.689-2.08,19.039-3.069,25.046-2.953c4.76,0.363,9.208,2.86,13.316,7.519c4.102,4.638,6.652,9.529,7.656,14.673
		c1.639,8.44,0.207,15.862-4.317,22.289c-0.952,1.691-6.266,7.312-15.937,16.881C69.817,192.262,70.534,183.904,68.895,175.461z
		 M124.96,241.447c0.087-1.73-0.526-4.395-1.865-7.971c-3.41-9.805-9.854-17.461-19.367-22.973
		c-9.508-5.528-19.399-7.285-29.69-5.281c-3.908,0.758-7.986,2.303-12.236,4.619c4.761-5.193,9.527-10.29,14.326-15.281
		c6.327-5.911,12.053-9.387,17.202-10.387c8.631-1.681,16.206-0.114,22.701,4.708c6.487,4.835,10.544,11.458,12.188,19.9
		C128.494,210.223,127.413,221.107,124.96,241.447z M196.249,229.188c-10.84-9.64-23.364-13.081-37.562-10.324
		c-14.606,2.843-24.948,11.153-31.022,24.929c1.807-15.93,3.231-27.851,4.252-35.732c4.604-7.09,10.608-11.357,18.021-12.802
		c14.392-2.798,26.017,2.636,34.873,16.282l0.863-0.49L196.249,229.188L196.249,229.188z M231.686,174.256
		c-11.726,2.275-20.842,8.364-27.344,18.278c-6.511,9.912-8.937,20.794-7.273,32.646l-14.536-25.361
		c-0.825-8.596,1.265-16.529,6.264-23.795c4.995-7.273,11.701-11.725,20.136-13.363c3.502-0.682,6.152-0.779,7.963-0.271
		c2.668,0.552,7.369,2.243,14.116,5.105c6.744,2.849,11.001,4.961,12.765,6.332C239.42,173.382,235.394,173.534,231.686,174.256z"/>
</g>
<g transform="scale(0.35) translate(100, 210)">
	<path class="st0" d="M151.633,329.521c-8.238,0-14.89,6.668-14.89,14.898c0,8.223,6.651,14.882,14.89,14.882
		c8.223,0,14.89-6.659,14.89-14.882C166.523,336.188,159.855,329.521,151.633,329.521z"/>
	<path class="st0" d="M229.257,346.783c-8.222,0-14.89,6.66-14.89,14.882c0,8.23,6.668,14.898,14.89,14.898
		c8.223,0,14.891-6.668,14.891-14.898C244.148,353.442,237.48,346.783,229.257,346.783z"/>
	<path class="st0" d="M438.457,224.151c0,0,0,0,0,0.008c0.016,0,0.016,0,0.016,0L438.457,224.151z"/>
	<path class="st0" d="M438.297,224.063l0.16,0.088c0,0,0-0.008-0.016-0.008L438.297,224.063z"/>
	<path class="st0" d="M456.2,166.746c0,0,0,0,0,0.008h0.016L456.2,166.746z"/>
	<path class="st0" d="M456.04,166.65l0.16,0.096c0,0,0-0.008-0.015-0.008L456.04,166.65z"/>
	<path class="st0" d="M487.102,241.342c12.854,1.418,23.978-3.775,24.844-11.629c0.865-7.854-8.832-15.371-21.67-16.798
		c-3.687-0.409-7.18-0.224-10.387,0.36l-13.832-30.934l-0.176-0.296c-0.513-0.858-1.298-3.198-2.404-5.971
		c-0.577-1.394-1.282-2.941-2.372-4.576c-1.074-1.618-2.613-3.406-4.905-4.744c-3.093-1.819-6.572-2.724-10.033-2.724
		c-3.318,0-6.652,0.833-9.633,2.5l-0.449,0.24l-30.308,22.094c-4.328-37.658-27.537-68.84-70.348-79.283
		c-48.534-11.837-94.742,2.724-129.46,31.872l-5.417-59.665l-0.625-1.314c-2.997-6.227-8.992-10.05-15.579-10.867
		c-0.85-0.104-1.715-0.152-2.565-0.152c-5.722,0.016-11.284,2.259-15.243,6.66l-0.209,0.232l-14.826,19.258
		c-3.174-0.778-6.78-1.162-10.626-0.938c-11.877,0.706-21.19,6.484-20.82,12.895c0.384,6.436,10.306,11.067,22.182,10.379
		c6.524-0.385,12.214-2.332,16.012-5.041l0.401,0.321l1.138-1.467c1.026-0.937,1.763-1.963,2.324-3.013l16.717-21.726
		c0.513-0.577,1.651-1.162,2.949-1.146l0.577,0.032c1.058,0.12,1.715,0.552,2.18,0.986l6.267,69.041
		c-9.344,10.065-17.502,21.285-24.235,33.362l-32.537-59.048l-0.064,0.032c-2.853-6.042-8.495-10.314-15.146-11.236
		c-0.898-0.12-1.796-0.184-2.709-0.184c-6.027,0-11.765,2.748-15.547,7.541l-0.193,0.232l-14.57,21.382
		c-4.055-1.787-8.976-2.86-14.345-2.86c-13.608,0-24.62,6.732-24.62,15.042c0,8.31,11.012,15.042,24.62,15.042
		c12.197,0,22.247-5.433,24.202-12.55l17.839-26.158c0.658-0.802,1.604-1.258,2.613-1.258l0.464,0.032
		c1.218,0.168,2.228,0.954,2.709,2.076l0.161,0.4l38.355,69.635c-3.526,8.567-6.348,17.438-8.415,26.518l-46.097-47.347
		l-0.032,0.032c-3.767-4.087-9.024-6.436-14.553-6.443l-1.283,0.048l0,0c-0.016,0-0.016,0-0.032,0l-0.096,0.008v0.016
		c-6.075,0.416-11.636,3.598-15.05,8.663l-34.364,50.818c-4.12-1.451-9.056-2.156-14.345-1.788
		c-13.56,0.938-24.091,8.415-23.514,16.71c0.577,8.294,12.037,14.241,25.613,13.295c6.155-0.425,11.62-2.244,15.772-4.833
		l0.32,0.225l0.481-0.697c4.056-2.741,6.54-6.291,6.812-10.082l36.817-54.464c0.61-0.882,1.571-1.427,2.613-1.491l0.064-0.008h0.048
		l0.144-0.007c0.961,0,1.891,0.424,2.548,1.154l0.128,0.152l54.72,56.203c-0.577,6.019-0.817,12.093-0.689,18.208l-21.366-18.568
		l-0.016,0.024c-5.257-4.888-11.988-7.382-18.672-7.373c-7.005-0.008-14.074,2.7-19.394,8.038l-0.434,0.432l-42.394,57.549
		c-3.414-1.09-7.228-1.763-11.348-1.763c-13.608,0-24.619,6.732-24.619,15.042c0,8.311,11.011,15.042,24.619,15.042
		c13.592,0,24.619-6.732,24.619-15.042c0-1.009-0.176-1.996-0.496-2.949l41.865-56.852c2.148-2.044,4.825-3.078,7.582-3.086
		c2.772,0.008,5.465,1.002,7.628,3.062l0.161,0.152l32.136,27.929c-25.132,3.19-44.526,24.523-44.526,50.513
		c0,28.065,22.728,50.882,50.873,50.882c12.15,0,23.306-4.272,32.008-11.412c8.127,16.99,25.436,28.642,45.632,28.642
		c27.808,0,50.424-22.415,50.825-50.136l0.064,0.104c4.088-1.57,8.046-3.261,11.925-5.008l72.287-13.456l0.609-0.224
		c1.266-0.449,2.516-0.657,3.75-0.657c4.312,0.008,8.366,2.589,10.13,6.78l15.884,71.887c-0.513,1.05-0.881,2.148-0.994,3.31
		c-0.754,8.27,9.601,15.98,23.161,17.214c13.544,1.242,25.132-4.463,25.886-12.742c0.753-8.27-9.601-15.98-23.161-17.215
		c-3.558-0.328-6.956-0.152-10.082,0.402l-15.002-67.903l-0.225-0.578c-4.199-10.867-14.569-17.575-25.597-17.566
		c-2.677,0-5.385,0.472-8.03,1.29v-0.008l-26.928,5.008c5.29-3.942,10.387-8.014,15.099-12.293l54.896-29.948l1.651-0.425
		l1.362,0.281c0.978,0.432,1.7,1.282,1.956,2.316l16.702,66.317c-0.304,0.713-0.61,1.434-0.738,2.212
		c-1.314,8.198,8.479,16.598,21.91,18.761c13.432,2.164,25.372-2.733,26.703-10.939c1.315-8.206-8.494-16.597-21.91-18.761
		c-3.975-0.641-7.773-0.593-11.252-0.096l-15.498-61.5c-1.491-5.955-5.658-10.875-11.284-13.336
		c-2.532-1.114-5.258-1.667-7.95-1.667c-3.286,0-6.555,0.818-9.504,2.428l-16.445,8.968c4.696-7.029,8.768-14.21,12.246-21.478
		l35.197-25.661l1.507-0.392l1.186,0.32c0.224,0.377,0.513,0.898,0.818,1.563c0.866,1.843,1.843,4.464,2.756,7.092
		c0.93,2.645,1.779,5.282,2.613,7.525l-0.016-0.024l16.221,44.014c0.786,7.204,9.392,14.361,21.061,16.862
		c13.287,2.852,25.485-1.411,27.232-9.537c1.73-8.127-7.614-17.022-20.918-19.875c-5.225-1.13-10.274-1.115-14.585-0.232
		l-13.608-36.905v-0.024c-0.994-2.621-2.436-7.285-4.135-11.693c-0.866-2.228-1.796-4.416-2.95-6.499
		c-0.593-1.05-1.234-2.076-2.068-3.126c-0.849-1.026-1.875-2.139-3.574-3.15c-3.094-1.819-6.572-2.733-10.034-2.724
		c-3.318,0-6.652,0.833-9.633,2.5l-0.449,0.24L401.993,236.1c2.421-9.208,3.831-18.36,4.328-27.32l38.34-27.945l1.506-0.392
		l1.394,0.377c0.272,0.424,0.754,1.434,1.298,2.925c0.592,1.547,1.282,3.47,2.356,5.602l-0.016,0.008l14.826,33.115
		c-0.257,0.673-0.513,1.346-0.593,2.067C464.567,232.389,474.264,239.907,487.102,241.342z M196.993,321.587l0.545,0.272
		c-0.096,0.064-0.193,0.112-0.272,0.184C197.185,321.883,197.072,321.747,196.993,321.587z M176.012,368.821
		c-6.234,6.235-14.858,10.098-24.379,10.098c-9.52,0-18.144-3.863-24.379-10.098c-6.234-6.315-10.082-14.85-10.082-24.371
		c0-9.6,3.847-18.135,10.082-24.459c6.235-6.234,14.858-10.089,24.379-10.089c9.521,0,18.144,3.854,24.379,10.089
		c4.424,4.52,7.63,10.098,9.104,16.413c-4.263,7.47-6.732,16.004-6.732,25.277c0,1.394,0.08,2.789,0.16,4.192
		C177.807,366.939,176.91,367.924,176.012,368.821z M253.636,386.059c-6.235,6.235-14.858,10.09-24.362,10.09
		c-9.521,0-18.144-3.854-24.379-10.09c-4.44-4.432-7.71-10.097-9.104-16.413c-0.657-2.548-0.994-5.257-0.994-7.966
		c0-6.315,1.651-12.142,4.68-17.23c0.737-1.474,1.715-2.877,2.869-4.183c0.738-1.066,1.651-2.052,2.549-2.958
		c6.234-6.315,14.858-10.098,24.379-10.098c9.505,0,18.127,3.783,24.362,10.098c6.236,6.236,10.098,14.77,10.098,24.371
		C263.734,371.202,259.871,379.817,253.636,386.059z M447.913,180.923L447.913,180.923l0.129,0.072L447.913,180.923z"/>
</g>
</svg>